<svg width="267" height="267" viewBox="0 0 267 267" fill="none" xmlns="http://www.w3.org/2000/svg">
<path d="M71.6789 71.8846C63.1716 71.8846 56.2751 64.9881 56.2751 56.4808C56.2751 47.9735 63.1716 41.0769 71.6789 41.0769C80.1862 41.0769 87.0828 47.9735 87.0828 56.4808C87.0828 64.9881 80.1862 71.8846 71.6789 71.8846Z" fill="#FABE8C"/>
<path d="M112.756 41.0769C104.249 41.0769 97.352 34.1804 97.352 25.6731C97.352 17.1658 104.249 10.2692 112.756 10.2692C121.263 10.2692 128.16 17.1658 128.16 25.6731C128.16 34.1804 121.263 41.0769 112.756 41.0769Z" fill="#FABE8C"/>
<path d="M153.833 30.8077C145.325 30.8077 138.429 23.9112 138.429 15.4038C138.429 6.89654 145.325 0 153.833 0C162.34 0 169.237 6.89654 169.237 15.4038C169.237 23.9112 162.34 30.8077 153.833 30.8077Z" fill="#FABE8C"/>
<path d="M194.91 51.3461C186.403 51.3461 179.506 44.4496 179.506 35.9423C179.506 27.435 186.403 20.5385 194.91 20.5385C203.417 20.5385 210.314 27.435 210.314 35.9423C210.314 44.4496 203.417 51.3461 194.91 51.3461Z" fill="#FABE8C"/>
<path d="M87.0828 56.4808V123.231C87.0828 124.593 87.6238 125.899 88.5867 126.861C89.5497 127.824 90.8557 128.365 92.2175 128.365C93.5792 128.365 94.8853 127.824 95.8482 126.861C96.8111 125.899 97.3521 124.593 97.3521 123.231V25.6731H128.16V112.962C128.16 114.323 128.701 115.629 129.664 116.592C130.627 117.555 131.933 118.096 133.294 118.096C134.656 118.096 135.962 117.555 136.925 116.592C137.888 115.629 138.429 114.323 138.429 112.962V15.4038H169.237V112.962C169.237 114.323 169.778 115.629 170.741 116.592C171.704 117.555 173.01 118.096 174.371 118.096C175.733 118.096 177.039 117.555 178.002 116.592C178.965 115.629 179.506 114.323 179.506 112.962V35.9423H210.314V164.308L231.109 135.852C237.27 126.353 249.296 123.169 258.107 128.612C266.887 134.178 269.064 146.316 262.984 155.784C262.984 155.784 229.445 206.545 215.15 228.275C200.856 250.004 177.699 267 134.393 267C62.6934 267 56.2751 211.628 56.2751 195.115V56.4808H87.0828Z" fill="#FABE8C"/>
<path d="M100.188 214.014C100.188 213.79 100.206 213.552 100.244 213.3C100.29 213.039 100.356 212.763 100.44 212.474C100.533 212.175 100.645 211.863 100.776 211.536L101.784 211.928C101.69 212.189 101.606 212.437 101.532 212.67C101.466 212.903 101.415 213.123 101.378 213.328C101.35 213.533 101.336 213.729 101.336 213.916C101.336 214.28 101.41 214.597 101.56 214.868C101.718 215.139 101.938 215.363 102.218 215.54C102.498 215.727 102.824 215.867 103.198 215.96C103.571 216.053 103.972 216.1 104.402 216.1C105.074 216.1 105.662 216.025 106.166 215.876C106.67 215.736 107.09 215.554 107.426 215.33C107.762 215.106 108.009 214.873 108.168 214.63C108.336 214.387 108.42 214.173 108.42 213.986C108.42 213.855 108.34 213.739 108.182 213.636C108.023 213.533 107.818 213.435 107.566 213.342C107.314 213.249 107.048 213.151 106.768 213.048C106.488 212.936 106.222 212.805 105.97 212.656C105.718 212.507 105.512 212.329 105.354 212.124C105.195 211.909 105.116 211.657 105.116 211.368C105.116 210.985 105.209 210.607 105.396 210.234C105.592 209.851 105.853 209.501 106.18 209.184C106.516 208.867 106.889 208.615 107.3 208.428C107.71 208.232 108.135 208.134 108.574 208.134C108.966 208.134 109.302 208.19 109.582 208.302C109.862 208.405 110.062 208.503 110.184 208.596L109.722 209.59C109.563 209.515 109.386 209.445 109.19 209.38C108.994 209.315 108.788 209.282 108.574 209.282C108.303 209.282 108.028 209.338 107.748 209.45C107.477 209.562 107.225 209.711 106.992 209.898C106.768 210.085 106.586 210.29 106.446 210.514C106.306 210.738 106.236 210.962 106.236 211.186C106.236 211.345 106.315 211.489 106.474 211.62C106.642 211.751 106.856 211.872 107.118 211.984C107.379 212.096 107.654 212.213 107.944 212.334C108.242 212.446 108.522 212.572 108.784 212.712C109.045 212.843 109.255 212.997 109.414 213.174C109.582 213.351 109.666 213.561 109.666 213.804C109.666 214.149 109.549 214.523 109.316 214.924C109.082 215.325 108.737 215.699 108.28 216.044C107.822 216.399 107.262 216.688 106.6 216.912C105.946 217.136 105.19 217.248 104.332 217.248C103.744 217.248 103.198 217.183 102.694 217.052C102.199 216.921 101.76 216.721 101.378 216.45C101.004 216.189 100.71 215.853 100.496 215.442C100.29 215.041 100.188 214.565 100.188 214.014ZM105.76 219.894C105.564 219.894 105.396 219.824 105.256 219.684C105.125 219.553 105.06 219.395 105.06 219.208C105.06 219.021 105.125 218.858 105.256 218.718C105.396 218.578 105.564 218.508 105.76 218.508C105.946 218.508 106.105 218.578 106.236 218.718C106.376 218.858 106.446 219.021 106.446 219.208C106.446 219.395 106.376 219.553 106.236 219.684C106.105 219.824 105.946 219.894 105.76 219.894ZM103.842 219.894C103.646 219.894 103.478 219.824 103.338 219.684C103.207 219.553 103.142 219.395 103.142 219.208C103.142 219.021 103.207 218.858 103.338 218.718C103.478 218.578 103.646 218.508 103.842 218.508C104.028 218.508 104.187 218.578 104.318 218.718C104.458 218.858 104.528 219.021 104.528 219.208C104.528 219.395 104.458 219.553 104.318 219.684C104.187 219.824 104.028 219.894 103.842 219.894ZM110.46 217.248L110.054 216.184C110.736 215.96 111.3 215.703 111.748 215.414C112.206 215.125 112.565 214.817 112.826 214.49C113.097 214.163 113.288 213.832 113.4 213.496C113.512 213.151 113.568 212.819 113.568 212.502C113.568 212.045 113.466 211.583 113.26 211.116C113.064 210.64 112.845 210.192 112.602 209.772L113.624 209.254C113.802 209.581 113.956 209.903 114.086 210.22C114.226 210.537 114.348 210.836 114.45 211.116C114.562 211.396 114.651 211.653 114.716 211.886C114.847 212.287 115.015 212.563 115.22 212.712C115.435 212.852 115.724 212.922 116.088 212.922C116.284 212.922 116.424 212.978 116.508 213.09C116.602 213.193 116.648 213.319 116.648 213.468C116.648 213.617 116.583 213.757 116.452 213.888C116.322 214.009 116.154 214.07 115.948 214.07C115.538 214.07 115.202 214 114.94 213.86C114.688 213.711 114.497 213.519 114.366 213.286C114.236 213.043 114.147 212.791 114.1 212.53L114.548 212.782C114.548 213.398 114.408 213.958 114.128 214.462C113.858 214.975 113.508 215.419 113.078 215.792C112.649 216.175 112.201 216.487 111.734 216.73C111.268 216.973 110.843 217.145 110.46 217.248ZM115.955 214.07L116.095 212.922C116.394 212.922 116.636 212.903 116.823 212.866C117.01 212.819 117.164 212.712 117.285 212.544C117.416 212.367 117.537 212.091 117.649 211.718C117.761 211.345 117.892 210.822 118.041 210.15L119.091 210.444C119.035 210.677 118.97 210.957 118.895 211.284C118.82 211.611 118.783 211.909 118.783 212.18C118.783 212.329 118.82 212.46 118.895 212.572C118.97 212.684 119.096 212.773 119.273 212.838C119.46 212.894 119.707 212.922 120.015 212.922C120.295 212.922 120.524 212.899 120.701 212.852C120.878 212.805 121.023 212.693 121.135 212.516C121.256 212.339 121.364 212.054 121.457 211.662C121.55 211.27 121.648 210.733 121.751 210.052L122.815 210.248C122.787 210.416 122.754 210.621 122.717 210.864C122.68 211.107 122.642 211.349 122.605 211.592C122.577 211.825 122.563 212.021 122.563 212.18C122.563 212.311 122.591 212.437 122.647 212.558C122.712 212.67 122.834 212.759 123.011 212.824C123.198 212.889 123.473 212.922 123.837 212.922C124.304 212.922 124.64 212.824 124.845 212.628C125.06 212.432 125.167 212.133 125.167 211.732C125.167 211.517 125.162 211.293 125.153 211.06C125.144 210.817 125.125 210.551 125.097 210.262C125.078 209.963 125.046 209.623 124.999 209.24L126.021 209.17C126.077 209.926 126.138 210.547 126.203 211.032C126.278 211.517 126.38 211.9 126.511 212.18C126.651 212.451 126.838 212.642 127.071 212.754C127.304 212.866 127.612 212.922 127.995 212.922C128.191 212.922 128.331 212.978 128.415 213.09C128.508 213.193 128.555 213.319 128.555 213.468C128.555 213.617 128.49 213.757 128.359 213.888C128.228 214.009 128.06 214.07 127.855 214.07C127.538 214.07 127.253 214.028 127.001 213.944C126.758 213.851 126.544 213.729 126.357 213.58C126.18 213.421 126.03 213.244 125.909 213.048C125.797 212.843 125.718 212.628 125.671 212.404L125.923 212.488C125.82 212.908 125.657 213.235 125.433 213.468C125.218 213.692 124.962 213.851 124.663 213.944C124.364 214.028 124.047 214.07 123.711 214.07C123.3 214.07 122.964 214.019 122.703 213.916C122.442 213.813 122.236 213.659 122.087 213.454C121.947 213.239 121.854 212.969 121.807 212.642H122.283C122.106 213.043 121.919 213.347 121.723 213.552C121.527 213.757 121.284 213.897 120.995 213.972C120.706 214.037 120.323 214.07 119.847 214.07C119.614 214.07 119.362 214.033 119.091 213.958C118.83 213.883 118.601 213.739 118.405 213.524C118.209 213.3 118.092 212.969 118.055 212.53L118.475 212.446C118.316 212.922 118.12 213.277 117.887 213.51C117.663 213.734 117.392 213.883 117.075 213.958C116.758 214.033 116.384 214.07 115.955 214.07ZM127.85 214.07L127.99 212.922C128.456 212.922 128.82 212.889 129.082 212.824C129.343 212.749 129.539 212.614 129.67 212.418C129.81 212.213 129.922 211.919 130.006 211.536C130.09 211.153 130.192 210.654 130.314 210.038L131.406 210.248C131.368 210.416 131.326 210.603 131.28 210.808C131.233 211.013 131.191 211.219 131.154 211.424C131.126 211.62 131.112 211.793 131.112 211.942C131.112 212.082 131.121 212.213 131.14 212.334C131.158 212.455 131.228 212.558 131.35 212.642C131.471 212.726 131.676 212.796 131.966 212.852C132.255 212.899 132.67 212.922 133.212 212.922C133.408 212.922 133.548 212.978 133.632 213.09C133.725 213.193 133.772 213.319 133.772 213.468C133.772 213.617 133.706 213.757 133.576 213.888C133.445 214.009 133.277 214.07 133.072 214.07C132.502 214.07 132.05 214.042 131.714 213.986C131.378 213.921 131.121 213.827 130.944 213.706C130.776 213.585 130.654 213.435 130.58 213.258C130.514 213.071 130.463 212.857 130.426 212.614L130.846 212.642C130.696 212.941 130.533 213.183 130.356 213.37C130.188 213.557 129.992 213.701 129.768 213.804C129.544 213.907 129.273 213.977 128.956 214.014C128.648 214.051 128.279 214.07 127.85 214.07ZM131.378 216.716C131.182 216.716 131.014 216.646 130.874 216.506C130.743 216.375 130.678 216.217 130.678 216.03C130.678 215.843 130.743 215.68 130.874 215.54C131.014 215.4 131.182 215.33 131.378 215.33C131.564 215.33 131.723 215.4 131.854 215.54C131.994 215.68 132.064 215.843 132.064 216.03C132.064 216.217 131.994 216.375 131.854 216.506C131.723 216.646 131.564 216.716 131.378 216.716ZM129.46 216.716C129.264 216.716 129.096 216.646 128.956 216.506C128.825 216.375 128.76 216.217 128.76 216.03C128.76 215.843 128.825 215.68 128.956 215.54C129.096 215.4 129.264 215.33 129.46 215.33C129.646 215.33 129.805 215.4 129.936 215.54C130.076 215.68 130.146 215.843 130.146 216.03C130.146 216.217 130.076 216.375 129.936 216.506C129.805 216.646 129.646 216.716 129.46 216.716ZM133.072 214.07L133.198 212.922C133.73 212.922 134.104 212.871 134.318 212.768C134.533 212.665 134.654 212.483 134.682 212.222C134.72 211.961 134.729 211.597 134.71 211.13L134.444 204.004H135.578L135.858 211.004C135.877 211.499 135.858 211.937 135.802 212.32C135.756 212.703 135.634 213.025 135.438 213.286C135.252 213.547 134.967 213.743 134.584 213.874C134.211 214.005 133.707 214.07 133.072 214.07ZM137.997 214L137.717 204.004H138.851L139.131 214H137.997ZM146.364 212.922C146.83 212.922 147.199 212.875 147.47 212.782C147.75 212.689 147.95 212.553 148.072 212.376C148.202 212.189 148.268 211.975 148.268 211.732C148.268 211.545 148.216 211.321 148.114 211.06C148.02 210.799 147.89 210.509 147.722 210.192C147.554 209.865 147.358 209.525 147.134 209.17C146.919 208.806 146.686 208.437 146.434 208.064L147.4 207.434C147.764 207.985 148.081 208.507 148.352 209.002C148.622 209.487 148.851 209.945 149.038 210.374C149.224 210.794 149.374 211.191 149.486 211.564C149.616 211.975 149.761 212.278 149.92 212.474C150.088 212.67 150.26 212.796 150.438 212.852C150.615 212.899 150.778 212.922 150.928 212.922C151.124 212.922 151.268 212.978 151.362 213.09C151.455 213.193 151.502 213.319 151.502 213.468C151.502 213.617 151.436 213.757 151.306 213.888C151.175 214.009 151.007 214.07 150.802 214.07C150.494 214.07 150.19 214.014 149.892 213.902C149.602 213.781 149.35 213.589 149.136 213.328C148.921 213.057 148.772 212.698 148.688 212.25L149.248 211.802C149.248 212.175 149.168 212.539 149.01 212.894C148.851 213.239 148.562 213.524 148.142 213.748C147.731 213.972 147.138 214.084 146.364 214.084C146.028 214.084 145.701 214.056 145.384 214C145.076 213.944 144.791 213.865 144.53 213.762C144.268 213.65 144.04 213.519 143.844 213.37L144.404 212.404C144.59 212.525 144.852 212.642 145.188 212.754C145.524 212.866 145.916 212.922 146.364 212.922ZM150.805 214.07L150.945 212.922C151.411 212.922 151.775 212.889 152.037 212.824C152.298 212.749 152.494 212.614 152.625 212.418C152.765 212.213 152.877 211.919 152.961 211.536C153.045 211.153 153.147 210.654 153.269 210.038L154.361 210.248C154.323 210.416 154.281 210.603 154.235 210.808C154.188 211.013 154.146 211.219 154.109 211.424C154.081 211.62 154.067 211.793 154.067 211.942C154.067 212.082 154.076 212.213 154.095 212.334C154.113 212.455 154.183 212.558 154.305 212.642C154.426 212.726 154.631 212.796 154.921 212.852C155.21 212.899 155.625 212.922 156.167 212.922C156.363 212.922 156.503 212.978 156.587 213.09C156.68 213.193 156.727 213.319 156.727 213.468C156.727 213.617 156.661 213.757 156.531 213.888C156.4 214.009 156.232 214.07 156.027 214.07C155.457 214.07 155.005 214.042 154.669 213.986C154.333 213.921 154.076 213.827 153.899 213.706C153.731 213.585 153.609 213.435 153.535 213.258C153.469 213.071 153.418 212.857 153.381 212.614L153.801 212.642C153.651 212.941 153.488 213.183 153.311 213.37C153.143 213.557 152.947 213.701 152.723 213.804C152.499 213.907 152.228 213.977 151.911 214.014C151.603 214.051 151.234 214.07 150.805 214.07ZM154.333 216.716C154.137 216.716 153.969 216.646 153.829 216.506C153.698 216.375 153.633 216.217 153.633 216.03C153.633 215.843 153.698 215.68 153.829 215.54C153.969 215.4 154.137 215.33 154.333 215.33C154.519 215.33 154.678 215.4 154.809 215.54C154.949 215.68 155.019 215.843 155.019 216.03C155.019 216.217 154.949 216.375 154.809 216.506C154.678 216.646 154.519 216.716 154.333 216.716ZM152.415 216.716C152.219 216.716 152.051 216.646 151.911 216.506C151.78 216.375 151.715 216.217 151.715 216.03C151.715 215.843 151.78 215.68 151.911 215.54C152.051 215.4 152.219 215.33 152.415 215.33C152.601 215.33 152.76 215.4 152.891 215.54C153.031 215.68 153.101 215.843 153.101 216.03C153.101 216.217 153.031 216.375 152.891 216.506C152.76 216.646 152.601 216.716 152.415 216.716ZM156.027 214.07L156.153 212.922C156.685 212.922 157.059 212.871 157.273 212.768C157.488 212.665 157.609 212.483 157.637 212.222C157.675 211.961 157.684 211.597 157.665 211.13L157.399 204.004H158.533L158.813 211.004C158.832 211.499 158.813 211.937 158.757 212.32C158.711 212.703 158.589 213.025 158.393 213.286C158.207 213.547 157.922 213.743 157.539 213.874C157.166 214.005 156.662 214.07 156.027 214.07ZM160.952 214L160.672 204.004H161.806L162.086 214H160.952Z" fill="black"/>
</svg>
