<svg width="267" height="267" viewBox="0 0 267 267" fill="none" xmlns="http://www.w3.org/2000/svg">
<path d="M154.244 41.0769C162.751 41.0769 169.648 34.1804 169.648 25.6731C169.648 17.1658 162.751 10.2692 154.244 10.2692C145.737 10.2692 138.84 17.1658 138.84 25.6731C138.84 34.1804 145.737 41.0769 154.244 41.0769Z" fill="#FABE8C"/>
<path d="M113.167 30.8077C121.674 30.8077 128.571 23.9112 128.571 15.4038C128.571 6.89654 121.674 0 113.167 0C104.66 0 97.7632 6.89654 97.7632 15.4038C97.7632 23.9112 104.66 30.8077 113.167 30.8077Z" fill="#FABE8C"/>
<path d="M72.0904 51.3461C80.5977 51.3461 87.4942 44.4496 87.4942 35.9423C87.4942 27.435 80.5977 20.5385 72.0904 20.5385C63.5831 20.5385 56.6865 27.435 56.6865 35.9423C56.6865 44.4496 63.5831 51.3461 72.0904 51.3461Z" fill="#FABE8C"/>
<path d="M179.917 56.4808V89.8558V123.231C179.917 124.593 179.376 125.899 178.413 126.861C177.45 127.824 176.144 128.365 174.783 128.365C173.421 128.365 172.115 127.824 171.152 126.861C170.189 125.899 169.648 124.593 169.648 123.231V25.6731H138.84V112.962C138.84 114.323 138.299 115.629 137.336 116.592C136.373 117.555 135.067 118.096 133.706 118.096C132.344 118.096 131.038 117.555 130.075 116.592C129.112 115.629 128.571 114.323 128.571 112.962V15.4038H97.7633V112.962C97.7633 114.323 97.2223 115.629 96.2594 116.592C95.2965 117.555 93.9905 118.096 92.6287 118.096C91.2669 118.096 89.9609 117.555 88.998 116.592C88.035 115.629 87.4941 114.323 87.4941 112.962V35.9423H56.6864V164.308L35.8912 135.852C29.7297 126.353 17.7044 123.169 8.89339 128.612C0.113199 134.178 -2.06388 146.316 4.01551 155.784C4.01551 155.784 37.5548 206.545 51.8496 228.275C66.1444 250.004 89.3015 267 132.607 267C204.307 267 210.725 211.628 210.725 195.115V125.798V56.4808H179.917Z" fill="#FABE8C"/>
<path d="M180 59V125H211V59H180Z" fill="#FABE8C"/>
<path d="M154.244 41.0769C162.751 41.0769 169.648 34.1804 169.648 25.6731C169.648 17.1658 162.751 10.2692 154.244 10.2692C145.737 10.2692 138.84 17.1658 138.84 25.6731C138.84 34.1804 145.737 41.0769 154.244 41.0769Z" fill="#FABE8C"/>
<path d="M113.167 30.8077C121.674 30.8077 128.571 23.9112 128.571 15.4038C128.571 6.89654 121.674 0 113.167 0C104.66 0 97.7632 6.89654 97.7632 15.4038C97.7632 23.9112 104.66 30.8077 113.167 30.8077Z" fill="#FABE8C"/>
<path d="M72.0904 51.3461C80.5977 51.3461 87.4942 44.4496 87.4942 35.9423C87.4942 27.435 80.5977 20.5385 72.0904 20.5385C63.5831 20.5385 56.6865 27.435 56.6865 35.9423C56.6865 44.4496 63.5831 51.3461 72.0904 51.3461Z" fill="#FABE8C"/>
<path d="M179.917 56.4808V89.8558V123.231C179.917 124.593 179.376 125.899 178.413 126.861C177.45 127.824 176.144 128.365 174.783 128.365C173.421 128.365 172.115 127.824 171.152 126.861C170.189 125.899 169.648 124.593 169.648 123.231V25.6731H138.84V112.962C138.84 114.323 138.299 115.629 137.336 116.592C136.373 117.555 135.067 118.096 133.706 118.096C132.344 118.096 131.038 117.555 130.075 116.592C129.112 115.629 128.571 114.323 128.571 112.962V15.4038H97.7633V112.962C97.7633 114.323 97.2223 115.629 96.2594 116.592C95.2965 117.555 93.9905 118.096 92.6287 118.096C91.2669 118.096 89.9609 117.555 88.998 116.592C88.035 115.629 87.4941 114.323 87.4941 112.962V35.9423H56.6864V164.308L35.8912 135.852C29.7297 126.353 17.7044 123.169 8.89339 128.612C0.113199 134.178 -2.06388 146.316 4.01551 155.784C4.01551 155.784 37.5548 206.545 51.8496 228.275C66.1444 250.004 89.3015 267 132.607 267C204.307 267 210.725 211.628 210.725 195.115V125.798V56.4808H179.917Z" fill="#FABE8C"/>
<path d="M180 59V125H211V59H180Z" fill="#FABE8C"/>
<path d="M195.321 71.8846C203.828 71.8846 210.725 64.9881 210.725 56.4808C210.725 47.9734 203.828 41.0769 195.321 41.0769C186.814 41.0769 179.917 47.9734 179.917 56.4808C179.917 64.9881 186.814 71.8846 195.321 71.8846Z" fill="#FABE8C"/>
<path d="M101.068 215.014C101.068 214.79 101.087 214.552 101.124 214.3C101.171 214.039 101.236 213.763 101.32 213.474C101.414 213.175 101.526 212.863 101.656 212.536L102.664 212.928C102.571 213.189 102.487 213.437 102.412 213.67C102.347 213.903 102.296 214.123 102.258 214.328C102.23 214.533 102.216 214.729 102.216 214.916C102.216 215.308 102.3 215.639 102.468 215.91C102.646 216.19 102.888 216.419 103.196 216.596C103.504 216.773 103.854 216.904 104.246 216.988C104.648 217.072 105.072 217.114 105.52 217.114C106.062 217.114 106.566 217.067 107.032 216.974C107.508 216.881 107.924 216.745 108.278 216.568C108.642 216.4 108.927 216.204 109.132 215.98C109.338 215.765 109.44 215.532 109.44 215.28C109.44 215.159 109.394 215.047 109.3 214.944C109.207 214.841 109.067 214.743 108.88 214.65C108.694 214.557 108.47 214.468 108.208 214.384C107.947 214.291 107.648 214.197 107.312 214.104L107.578 212.942C108.064 213.129 108.493 213.287 108.866 213.418C109.24 213.539 109.566 213.637 109.846 213.712C110.126 213.787 110.369 213.843 110.574 213.88C110.78 213.908 110.952 213.922 111.092 213.922C111.288 213.922 111.428 213.978 111.512 214.09C111.606 214.193 111.652 214.319 111.652 214.468C111.652 214.617 111.587 214.757 111.456 214.888C111.326 215.009 111.158 215.07 110.952 215.07C110.896 215.07 110.84 215.07 110.784 215.07C110.728 215.07 110.668 215.07 110.602 215.07C110.546 215.07 110.49 215.07 110.434 215.07C110.453 215.154 110.467 215.219 110.476 215.266C110.486 215.322 110.49 215.392 110.49 215.476C110.49 215.821 110.369 216.157 110.126 216.484C109.893 216.811 109.548 217.105 109.09 217.366C108.633 217.637 108.078 217.851 107.424 218.01C106.78 218.169 106.043 218.248 105.212 218.248C104.475 218.248 103.789 218.127 103.154 217.884C102.529 217.651 102.025 217.296 101.642 216.82C101.26 216.344 101.068 215.742 101.068 215.014ZM106.22 220.894C106.024 220.894 105.856 220.824 105.716 220.684C105.586 220.553 105.52 220.395 105.52 220.208C105.52 220.021 105.586 219.858 105.716 219.718C105.856 219.578 106.024 219.508 106.22 219.508C106.407 219.508 106.566 219.578 106.696 219.718C106.836 219.858 106.906 220.021 106.906 220.208C106.906 220.395 106.836 220.553 106.696 220.684C106.566 220.824 106.407 220.894 106.22 220.894ZM104.302 220.894C104.106 220.894 103.938 220.824 103.798 220.684C103.668 220.553 103.602 220.395 103.602 220.208C103.602 220.021 103.668 219.858 103.798 219.718C103.938 219.578 104.106 219.508 104.302 219.508C104.489 219.508 104.648 219.578 104.778 219.718C104.918 219.858 104.988 220.021 104.988 220.208C104.988 220.395 104.918 220.553 104.778 220.684C104.648 220.824 104.489 220.894 104.302 220.894ZM110.957 215.07L111.097 213.922C111.489 213.922 111.797 213.889 112.021 213.824C112.245 213.749 112.413 213.614 112.525 213.418C112.646 213.213 112.749 212.919 112.833 212.536C112.917 212.153 113.02 211.654 113.141 211.038L114.233 211.248C114.196 211.416 114.154 211.603 114.107 211.808C114.06 212.013 114.018 212.219 113.981 212.424C113.953 212.62 113.939 212.793 113.939 212.942C113.939 213.129 113.981 213.297 114.065 213.446C114.149 213.595 114.331 213.712 114.611 213.796C114.891 213.88 115.32 213.922 115.899 213.922C116.095 213.922 116.235 213.978 116.319 214.09C116.412 214.193 116.459 214.319 116.459 214.468C116.459 214.617 116.394 214.757 116.263 214.888C116.132 215.009 115.964 215.07 115.759 215.07C115.152 215.07 114.676 215.019 114.331 214.916C113.986 214.804 113.734 214.641 113.575 214.426C113.416 214.202 113.309 213.931 113.253 213.614L113.673 213.642C113.524 213.941 113.36 214.183 113.183 214.37C113.015 214.557 112.828 214.701 112.623 214.804C112.418 214.907 112.18 214.977 111.909 215.014C111.638 215.051 111.321 215.07 110.957 215.07ZM113.141 209.596C112.945 209.596 112.777 209.531 112.637 209.4C112.506 209.26 112.441 209.097 112.441 208.91C112.441 208.723 112.506 208.56 112.637 208.42C112.777 208.28 112.945 208.21 113.141 208.21C113.328 208.21 113.486 208.28 113.617 208.42C113.757 208.56 113.827 208.723 113.827 208.91C113.827 209.097 113.757 209.26 113.617 209.4C113.486 209.531 113.328 209.596 113.141 209.596ZM115.756 215.07L115.896 213.922C116.157 213.922 116.363 213.866 116.512 213.754C116.671 213.642 116.82 213.455 116.96 213.194C117.109 212.933 117.296 212.583 117.52 212.144C117.744 211.696 117.968 211.332 118.192 211.052C118.425 210.763 118.649 210.539 118.864 210.38C119.088 210.212 119.298 210.095 119.494 210.03C119.69 209.965 119.872 209.932 120.04 209.932C120.348 209.932 120.623 210.002 120.866 210.142C121.109 210.273 121.337 210.501 121.552 210.828C121.767 211.145 121.986 211.584 122.21 212.144C122.425 212.657 122.616 213.045 122.784 213.306C122.961 213.558 123.143 213.726 123.33 213.81C123.526 213.885 123.745 213.922 123.988 213.922C124.184 213.922 124.324 213.978 124.408 214.09C124.501 214.193 124.548 214.319 124.548 214.468C124.548 214.617 124.483 214.757 124.352 214.888C124.221 215.009 124.053 215.07 123.848 215.07C123.484 215.07 123.148 215.009 122.84 214.888C122.541 214.767 122.289 214.575 122.084 214.314L122.28 214.02C122.177 214.309 122.037 214.547 121.86 214.734C121.692 214.911 121.501 215.042 121.286 215.126C121.071 215.219 120.843 215.266 120.6 215.266C120.292 215.266 119.975 215.201 119.648 215.07C119.331 214.939 119.023 214.753 118.724 214.51C118.425 214.267 118.164 213.983 117.94 213.656C117.697 214.085 117.464 214.403 117.24 214.608C117.025 214.804 116.801 214.93 116.568 214.986C116.335 215.042 116.064 215.07 115.756 215.07ZM118.472 212.592C118.631 212.853 118.799 213.082 118.976 213.278C119.163 213.474 119.349 213.637 119.536 213.768C119.723 213.889 119.905 213.983 120.082 214.048C120.269 214.104 120.437 214.132 120.586 214.132C120.913 214.132 121.151 214.015 121.3 213.782C121.459 213.549 121.454 213.222 121.286 212.802C121.202 212.587 121.113 212.377 121.02 212.172C120.936 211.967 120.843 211.78 120.74 211.612C120.637 211.435 120.521 211.299 120.39 211.206C120.259 211.103 120.115 211.052 119.956 211.052C119.816 211.052 119.667 211.099 119.508 211.192C119.359 211.285 119.195 211.444 119.018 211.668C118.85 211.892 118.668 212.2 118.472 212.592ZM123.85 215.07L123.99 213.922C124.456 213.922 124.82 213.889 125.082 213.824C125.343 213.749 125.539 213.614 125.67 213.418C125.81 213.213 125.922 212.919 126.006 212.536C126.09 212.153 126.192 211.654 126.314 211.038L127.406 211.248C127.368 211.416 127.326 211.603 127.28 211.808C127.233 212.013 127.191 212.219 127.154 212.424C127.126 212.62 127.112 212.793 127.112 212.942C127.112 213.082 127.121 213.213 127.14 213.334C127.158 213.455 127.228 213.558 127.35 213.642C127.471 213.726 127.676 213.796 127.966 213.852C128.255 213.899 128.67 213.922 129.212 213.922C129.408 213.922 129.548 213.978 129.632 214.09C129.725 214.193 129.772 214.319 129.772 214.468C129.772 214.617 129.706 214.757 129.576 214.888C129.445 215.009 129.277 215.07 129.072 215.07C128.502 215.07 128.05 215.042 127.714 214.986C127.378 214.921 127.121 214.827 126.944 214.706C126.776 214.585 126.654 214.435 126.58 214.258C126.514 214.071 126.463 213.857 126.426 213.614L126.846 213.642C126.696 213.941 126.533 214.183 126.356 214.37C126.188 214.557 125.992 214.701 125.768 214.804C125.544 214.907 125.273 214.977 124.956 215.014C124.648 215.051 124.279 215.07 123.85 215.07ZM127.378 217.716C127.182 217.716 127.014 217.646 126.874 217.506C126.743 217.375 126.678 217.217 126.678 217.03C126.678 216.843 126.743 216.68 126.874 216.54C127.014 216.4 127.182 216.33 127.378 216.33C127.564 216.33 127.723 216.4 127.854 216.54C127.994 216.68 128.064 216.843 128.064 217.03C128.064 217.217 127.994 217.375 127.854 217.506C127.723 217.646 127.564 217.716 127.378 217.716ZM125.46 217.716C125.264 217.716 125.096 217.646 124.956 217.506C124.825 217.375 124.76 217.217 124.76 217.03C124.76 216.843 124.825 216.68 124.956 216.54C125.096 216.4 125.264 216.33 125.46 216.33C125.646 216.33 125.805 216.4 125.936 216.54C126.076 216.68 126.146 216.843 126.146 217.03C126.146 217.217 126.076 217.375 125.936 217.506C125.805 217.646 125.646 217.716 125.46 217.716ZM129.072 215.07L129.198 213.922C129.73 213.922 130.104 213.871 130.318 213.768C130.533 213.665 130.654 213.483 130.682 213.222C130.72 212.961 130.729 212.597 130.71 212.13L130.444 205.004H131.578L131.858 212.004C131.877 212.499 131.858 212.937 131.802 213.32C131.756 213.703 131.634 214.025 131.438 214.286C131.252 214.547 130.967 214.743 130.584 214.874C130.211 215.005 129.707 215.07 129.072 215.07ZM133.997 215L133.717 205.004H134.851L135.131 215H133.997ZM142.364 213.922C142.83 213.922 143.199 213.875 143.47 213.782C143.75 213.689 143.95 213.553 144.072 213.376C144.202 213.189 144.268 212.975 144.268 212.732C144.268 212.545 144.216 212.321 144.114 212.06C144.02 211.799 143.89 211.509 143.722 211.192C143.554 210.865 143.358 210.525 143.134 210.17C142.919 209.806 142.686 209.437 142.434 209.064L143.4 208.434C143.764 208.985 144.081 209.507 144.352 210.002C144.622 210.487 144.851 210.945 145.038 211.374C145.224 211.794 145.374 212.191 145.486 212.564C145.616 212.975 145.761 213.278 145.92 213.474C146.088 213.67 146.26 213.796 146.438 213.852C146.615 213.899 146.778 213.922 146.928 213.922C147.124 213.922 147.268 213.978 147.362 214.09C147.455 214.193 147.502 214.319 147.502 214.468C147.502 214.617 147.436 214.757 147.306 214.888C147.175 215.009 147.007 215.07 146.802 215.07C146.494 215.07 146.19 215.014 145.892 214.902C145.602 214.781 145.35 214.589 145.136 214.328C144.921 214.057 144.772 213.698 144.688 213.25L145.248 212.802C145.248 213.175 145.168 213.539 145.01 213.894C144.851 214.239 144.562 214.524 144.142 214.748C143.731 214.972 143.138 215.084 142.364 215.084C142.028 215.084 141.701 215.056 141.384 215C141.076 214.944 140.791 214.865 140.53 214.762C140.268 214.65 140.04 214.519 139.844 214.37L140.404 213.404C140.59 213.525 140.852 213.642 141.188 213.754C141.524 213.866 141.916 213.922 142.364 213.922ZM146.805 215.07L146.945 213.922C147.411 213.922 147.775 213.889 148.037 213.824C148.298 213.749 148.494 213.614 148.625 213.418C148.765 213.213 148.877 212.919 148.961 212.536C149.045 212.153 149.147 211.654 149.269 211.038L150.361 211.248C150.323 211.416 150.281 211.603 150.235 211.808C150.188 212.013 150.146 212.219 150.109 212.424C150.081 212.62 150.067 212.793 150.067 212.942C150.067 213.082 150.076 213.213 150.095 213.334C150.113 213.455 150.183 213.558 150.305 213.642C150.426 213.726 150.631 213.796 150.921 213.852C151.21 213.899 151.625 213.922 152.167 213.922C152.363 213.922 152.503 213.978 152.587 214.09C152.68 214.193 152.727 214.319 152.727 214.468C152.727 214.617 152.661 214.757 152.531 214.888C152.4 215.009 152.232 215.07 152.027 215.07C151.457 215.07 151.005 215.042 150.669 214.986C150.333 214.921 150.076 214.827 149.899 214.706C149.731 214.585 149.609 214.435 149.535 214.258C149.469 214.071 149.418 213.857 149.381 213.614L149.801 213.642C149.651 213.941 149.488 214.183 149.311 214.37C149.143 214.557 148.947 214.701 148.723 214.804C148.499 214.907 148.228 214.977 147.911 215.014C147.603 215.051 147.234 215.07 146.805 215.07ZM150.333 217.716C150.137 217.716 149.969 217.646 149.829 217.506C149.698 217.375 149.633 217.217 149.633 217.03C149.633 216.843 149.698 216.68 149.829 216.54C149.969 216.4 150.137 216.33 150.333 216.33C150.519 216.33 150.678 216.4 150.809 216.54C150.949 216.68 151.019 216.843 151.019 217.03C151.019 217.217 150.949 217.375 150.809 217.506C150.678 217.646 150.519 217.716 150.333 217.716ZM148.415 217.716C148.219 217.716 148.051 217.646 147.911 217.506C147.78 217.375 147.715 217.217 147.715 217.03C147.715 216.843 147.78 216.68 147.911 216.54C148.051 216.4 148.219 216.33 148.415 216.33C148.601 216.33 148.76 216.4 148.891 216.54C149.031 216.68 149.101 216.843 149.101 217.03C149.101 217.217 149.031 217.375 148.891 217.506C148.76 217.646 148.601 217.716 148.415 217.716ZM152.027 215.07L152.153 213.922C152.685 213.922 153.059 213.871 153.273 213.768C153.488 213.665 153.609 213.483 153.637 213.222C153.675 212.961 153.684 212.597 153.665 212.13L153.399 205.004H154.533L154.813 212.004C154.832 212.499 154.813 212.937 154.757 213.32C154.711 213.703 154.589 214.025 154.393 214.286C154.207 214.547 153.922 214.743 153.539 214.874C153.166 215.005 152.662 215.07 152.027 215.07ZM156.952 215L156.672 205.004H157.806L158.086 215H156.952Z" fill="black"/>
</svg>
